#N canvas 258 9 450 629 10;
#X obj 5 7 dumpOSC 12000;
#X obj 123 24 prepend set;
#X msg 123 45 /planet -33.0667 -340.398 8;
#X floatatom 40 68 5 0 0 0 - - -;
#X obj 10 218 * 2.5;
#X obj 10 244 osc~;
#X obj 13 594 dac~;
#X floatatom 75 68 5 0 0 0 - - -;
#X msg 387 380 \; pd dsp 1;
#X msg 382 433 \; pd dsp 0;
#X obj 13 569 *~ 0.5;
#X floatatom 46 550 5 0 0 0 - - -;
#X obj 46 393 vsl 15 128 0 127 0 0 empty empty vol 0 -9 0 10 -262144
-1 -1 1200 1;
#X obj 46 529 / 127;
#X obj 52 219 * 3.5;
#X obj 52 244 osc~;
#X obj 11 270 *~;
#X obj 5 32 unpack s 0.1 0.1 1;
#X floatatom 110 68 5 0 0 0 - - -;
#X obj 110 92 select 0 1 2 3 4 5 6 7 8;
#X floatatom 83 177 5 0 0 0 - - -;
#X obj 110 114 bng 15 250 50 0 empty empty empty 17 7 0 10 -262144
-257985 -1;
#X msg 4 135 set -33.0667;
#X floatatom 4 157 5 0 0 0 - - -;
#X obj 2 111 prepend set set;
#X obj 75 131 prepend set set;
#X msg 83 153 set -340.398;
#X floatatom 170 242 5 0 0 0 - - -;
#X msg 261 212 set -33.0667;
#X floatatom 261 238 5 0 0 0 - - -;
#X obj 261 187 prepend set set;
#X obj 153 184 prepend set set;
#X msg 162 212 set -340.398;
#X obj 235 113 bng 15 250 50 0 empty empty empty 17 7 0 10 -262144
-1 -1;
#X obj 170 267 * 3.5;
#X obj 261 266 * 4.5;
#X obj 170 292 osc~;
#X obj 261 289 osc~;
#X obj 12 295 *~;
#X obj 170 316 *~;
#N canvas 0 0 450 300 planet 0;
#X floatatom 126 145 5 0 0 0 - - -;
#X msg 194 122 set -244.925;
#X floatatom 195 147 5 0 0 0 - - -;
#X obj 184 98 prepend set set;
#X obj 83 102 prepend set set;
#X msg 85 124 set 238.696;
#X obj 78 29 inlet;
#X obj 151 32 inlet;
#X connect 1 0 2 0;
#X connect 3 0 1 0;
#X connect 4 0 5 0;
#X connect 5 0 0 0;
#X connect 6 0 4 0;
#X connect 7 0 3 0;
#X restore 333 563 pd planet;
#X obj 253 113 bng 15 250 50 0 empty empty empty 17 7 0 10 -1 -257985
-86584;
#X obj 126 114 bng 15 250 50 0 empty empty empty 17 7 0 10 -262144
-1 -1;
#X obj 142 114 bng 15 250 50 0 empty empty empty 17 7 0 10 -262144
-1 -1;
#X obj 158 114 bng 15 250 50 0 empty empty empty 17 7 0 10 -262144
-1 -1;
#X connect 0 0 1 0;
#X connect 0 0 17 0;
#X connect 1 0 2 0;
#X connect 3 0 24 0;
#X connect 3 0 30 0;
#X connect 4 0 5 0;
#X connect 5 0 16 0;
#X connect 7 0 25 0;
#X connect 7 0 31 0;
#X connect 10 0 6 0;
#X connect 10 0 6 1;
#X connect 11 0 10 1;
#X connect 12 0 13 0;
#X connect 13 0 11 0;
#X connect 14 0 15 0;
#X connect 15 0 16 1;
#X connect 16 0 38 0;
#X connect 17 1 3 0;
#X connect 17 2 7 0;
#X connect 17 3 18 0;
#X connect 18 0 19 0;
#X connect 19 0 21 0;
#X connect 19 1 42 0;
#X connect 19 2 43 0;
#X connect 19 3 44 0;
#X connect 19 8 33 0;
#X connect 19 9 41 0;
#X connect 20 0 4 0;
#X connect 21 0 23 0;
#X connect 21 0 22 0;
#X connect 21 0 26 0;
#X connect 22 0 23 0;
#X connect 23 0 14 0;
#X connect 24 0 22 0;
#X connect 25 0 26 0;
#X connect 26 0 20 0;
#X connect 27 0 34 0;
#X connect 28 0 29 0;
#X connect 29 0 35 0;
#X connect 30 0 28 0;
#X connect 31 0 32 0;
#X connect 32 0 27 0;
#X connect 33 0 28 0;
#X connect 33 0 32 0;
#X connect 34 0 36 0;
#X connect 35 0 37 0;
#X connect 36 0 39 0;
#X connect 37 0 39 1;
#X connect 38 0 10 0;
#X connect 39 0 38 1;
